<svg xmlns="http://www.w3.org/2000/svg" viewBox="0 0 512 512">
  <defs><linearGradient id="bg" x1="0" y1="0" x2="1" y2="1"><stop stop-color="#123944"/><stop offset="1" stop-color="#061117"/></linearGradient><linearGradient id="panel" x1="0" y1="0" x2="0" y2="1"><stop stop-color="#48a6ff"/><stop offset="1" stop-color="#1762c7"/></linearGradient><linearGradient id="sun" x1="0" y1="0" x2="0" y2="1"><stop stop-color="#ffe16a"/><stop offset="1" stop-color="#f3a51e"/></linearGradient></defs>
  <rect width="512" height="512" rx="112" fill="url(#bg)"/>
  <g stroke="#f7c436" stroke-width="18" stroke-linecap="round"><path d="M367 78v26M367 224v26M281 164h26M427 164h26M306 103l19 19M409 206l19 19M428 103l-19 19M325 206l-19 19"/></g>
  <circle cx="367" cy="164" r="61" fill="url(#sun)"/>
  <path d="M92 198h260l45 186H47z" fill="url(#panel)" stroke="#9ad7ff" stroke-width="12" stroke-linejoin="round"/>
  <g fill="none" stroke="#bde6ff" stroke-width="8" opacity=".9"><path d="M137 198l-30 186M204 198l-10 186M271 198l10 186M338 198l30 186M72 291h303"/></g>
  <path d="M222 388v41M154 435h136" fill="none" stroke="#9ad7ff" stroke-width="18" stroke-linecap="round"/>
</svg>
